<svg xmlns="http://www.w3.org/2000/svg" viewBox="0 0 474 474"><path d="M89.746 21.086c-15.34 3.615-27.598 17.408-29.828 33.563-.52 3.768-.827 28.451-.682 54.851l.264 48h38.473l.263-49 .264-49 98.75-.255L296 58.99v78.987l39.75.262 39.75.261.153 9c.084 4.95.196 9.347.25 9.772.053.424 8.76.649 19.347.5l19.25-.272v-47.236l-45.202-45.132L324.095 20l-115.297.1c-63.414.056-116.987.499-119.052.986m-3.402 177.955c-20.722 4.1-39.814 22.885-44.813 44.092-2.135 9.055-2.18 58.955-.061 67.091 5.469 20.998 21.783 37.598 42.041 42.779 7.039 1.8 11.098 1.997 41.171 1.997h33.361l-.271-19.25-.272-19.25-32.5-.5c-35.405-.545-35.675-.588-40.879-6.515-4.93-5.615-5.121-6.822-5.121-32.401 0-25.422.463-28.594 4.886-33.46 5.755-6.332 7.331-6.578 42.364-6.602L158 237v-39l-33.75.11c-18.562.06-35.62.479-37.906.931m131.428 38.209-.272 19.25-19.75.271-19.75.271v38.916l19.75.271 19.75.271.229 17c.125 9.35.238 18.238.25 19.75L218 336h38l.115-18.25c.064-10.038.176-18.925.25-19.75.114-1.268 3.188-1.542 19.885-1.771l19.75-.271V257h-40v-39h-37.957l-.271 19.25m138 0-.272 19.25-19.5.5-19.5.5-.272 19.25-.271 19.25H356v40.043l19.25-.271 19.25-.272.271-19.75.271-19.75H434v-39h-39v-39h-38.957l-.271 19.25M59.667 395.667c-1.034 1.033-.786 19.431.341 25.373 2.806 14.796 14.14 27.581 28.133 31.733 5.348 1.587 290.828 1.351 297.059-.246 19.255-4.933 28.958-19.408 29.177-43.527l.123-13.5-18.927-.273c-14.469-.208-19.119.027-19.744 1-.449.7-.595 5.212-.324 10.027l.493 8.753-138.749-.253L98.5 414.5l-.125-3c-.069-1.65-.181-6.038-.25-9.75L98 395H79.167c-10.359 0-19.134.3-19.5.667" fill-rule="evenodd"/></svg>