<svg xmlns="http://www.w3.org/2000/svg" viewBox="0 0 474 474"><path d="M225.938 99.155c-74.95 4.648-133.476 73.29-126.902 148.839 9.685 111.312 138.602 166.107 225.55 95.869 11.826-9.553 34.559-36.479 32.286-38.241-.904-.7-14.082-8.386-35.372-20.63a48741.987 48741.987 0 0 1-23.628-13.593c-.345-.202-1.888 1.539-3.429 3.867-37.461 56.607-126.316 29.407-126.428-38.702-.11-66.589 87.946-94.195 125.419-39.319l3.24 4.744 29.362-16.84c16.148-9.262 29.512-17.294 29.697-17.849.581-1.743-9.91-16.317-17.733-24.637-29.404-31.269-67.971-46.242-112.062-43.508M359.8 209.699l-.3 5.698-5 .071-5 .071-.296 6.73-.295 6.731H360v17h-11v13h11v11h13v-11h17v11h14v-11h11v-13h-11v-17H415.091l-.295-6.75-.296-6.75-3.5-.131c-7.427-.278-7 .08-7-5.869V204h-14l.001 5.75.001 5.75-8.251-.162-8.251-.161-.3-5.589-.3-5.588h-12.8l-.3 5.699M373 237.5v8.5h17v-17h-17v8.5" fill-rule="evenodd"/></svg>