<svg xmlns="http://www.w3.org/2000/svg" viewBox="0 0 800 800"><path d="M271.313 34.047C144.798 44.322 87.912 197.582 176.96 288.25L188.5 300l-11.54 11.75c-58.686 59.754-57.828 153.723 1.937 212.135l9.603 9.385-11.006 11.115C83.814 638.994 150.19 799.406 283 799.361c65.474-.022 122.124-40.56 142.348-101.861 7.141-21.645 6.951-19.313 7.381-90.75.215-35.612.609-64.75.877-64.75s3.954 1.997 8.191 4.437c58.74 33.831 132.659 24.019 180.659-23.981 58.504-58.505 58.762-151.469.584-210.706L611.5 300l11.54-11.75c90.097-91.736 31.925-244.39-96.899-254.283-14.663-1.126-240.852-1.055-254.828.08M267 101.496c-53.72 10.811-82.7 70.377-58.072 119.361 10.469 20.822 28.341 35.611 51.765 42.835l8.807 2.716 48.75.364 48.75.364V100l-46.75.094c-34.199.069-48.495.445-53.25 1.402m166 82.072v83.568l48.75-.364 48.75-.364 8.807-2.716c69.493-21.431 82.649-113.015 21.681-150.931C541.982 100.942 535.926 100 478.912 100H433v83.568m-161.685 150.44c-26.478 3.871-50.308 21.112-62.387 45.135-24.82 49.364 4.602 109.02 58.91 119.448 5.65 1.085 17.896 1.409 53.25 1.409H367V333l-45.25.125c-24.887.068-47.583.466-50.435.883m230.519.489c-59.641 11.336-87.931 79.419-53.81 129.503 37.651 55.266 123.966 44.325 146.891-18.62 21.904-60.143-30.65-122.75-93.081-110.883M316 567.019c-55.035.578-54 .456-69.5 8.214-50.436 25.244-62.302 91.44-23.669 132.044 29.622 31.132 78.192 34.671 112.068 8.165 13.544-10.597 24.975-28.092 29.693-45.442 1.92-7.058 3.506-101.536 1.728-102.88-.451-.341-23.095-.386-50.32-.101" fill-rule="evenodd"/></svg>