<svg xmlns="http://www.w3.org/2000/svg" viewBox="0 0 820 570"><path fill="#e5d7c3" stroke="#e5d7c3" d="M390.16 90.005c-29.655 3.879-49.668 10.438-64.831 21.247l-4.171 2.974-4.829-1.863c-17.776-6.857-38.102 3.878-42.915 22.665-3.388 13.227.791 23.298 13.187 31.775l3.101 2.121-1.255 9.288c-2.986 22.096-2.748 39.295 1.114 80.715 2.003 21.48 2.287 19.72-3.311 20.554-16.518 2.461-25.421 13.706-19.854 25.075 4.796 9.795 9.93 11.748 19.484 7.413l4.38-1.988-.614 6.76c-5.908 64.954-1.501 97.656 16.352 121.345l4.833 6.414-6.834 7.06c-11.254 11.624-10.849 20.739 1.31 29.548 6.891 4.991 11.093 3.771 25.56-7.427 9.635-7.457 10.334-7.575 22.488-3.794 38.817 12.076 90.809 10.125 121.145-4.546 6.416-3.103 8.016-2.618 13.917 4.217 9.276 10.745 14.987 13.309 21.883 9.825 13.399-6.77 14.232-19.416 2.13-32.354l-4.684-5.008 2.877-3.744c11.867-15.445 18.948-35.142 22.567-62.777 1.362-10.399 1.613-54.405.349-61.145-.672-3.58-.656-3.6 2.142-2.761 9.295 2.788 14.361.242 18.268-9.184 4.219-10.18-1.936-19.222-15.99-23.491l-6.711-2.039-.549-35.69c-.52-33.769-2.144-57.264-4.679-67.69-1.287-5.295-1.276-10.5.023-10.5 2.076 0 10.843-9.226 12.875-13.549 3.047-6.481 2.9-18.188-.312-24.951-7.262-15.291-25.036-22.508-40.739-16.542l-5.154 1.959-5.197-3.45c-21.652-14.372-61.64-21.133-97.356-16.462m52.735 26.369c-30.986 6.669-37.673 45.272-10.186 58.803 16.26 8.005 38.678 2.081 47.759-12.621 3.962-6.413 4.413-21.97.852-29.398-6.716-14.008-21.44-20.44-38.425-16.784m-90.85 3.655c-20.484 4.306-31.979 23.709-25.037 42.263 12.625 33.743 69.239 22.467 66.735-13.292-1.445-20.641-19.999-33.532-41.698-28.971m73.297 19.444c-3.472 2.432-5.57 8.965-4.343 13.524C424.6 166.368 443 163.848 443 149.984c0-9.359-10.435-15.57-17.658-10.511m-90.125 3.088c-9.287 6.505-4.712 22.45 6.437 22.435 10.021-.013 14.955-13.576 7.696-21.152-3.183-3.323-10.299-3.969-14.133-1.283m99.963 9.689c.176 1.238.77 2.25 1.32 2.25s1.144-1.012 1.32-2.25c.219-1.548-.192-2.25-1.32-2.25-1.128 0-1.539.702-1.32 2.25M345 154.833c0 1.009.296 2.13.658 2.492 1.061 1.06 3.275-1.337 2.676-2.898-.793-2.064-3.334-1.755-3.334.406m64.639 54.783c-1.702 12.416.956 19.562 6.628 17.824 4.245-1.301 4.733-2.389 4.733-10.549v-7.864l-3.337-1.394c-7.416-3.099-7.324-3.121-8.024 1.983M398 207.97l-5.5 1.764-.302 4.571c-.61 9.225 4.923 15.248 10.361 11.278 2.171-1.586 3.975-19.694 1.941-19.482-.55.057-3.475.898-6.5 1.869" fill-rule="evenodd"/><path fill="#f4f4f4" stroke="#f4f4f4" d="M399.5 91.664c-27.413 1.563-56.314 10.309-72.871 22.052-2.738 1.942-5.584 3.227-6.5 2.935-.896-.286-3.429-1.204-5.629-2.041-17.497-6.657-37.762 6.727-40.078 26.469-1.158 9.869 2.929 18.195 11.82 24.081 5.261 3.483 5.821 4.583 4.78 9.391-2.758 12.75-3.697 52.477-1.511 63.949.364 1.91.692 6.107 2.426 31 .819 11.762.599 12.461-3.937 12.48-8.522.035-20.238 8.444-21.557 15.47-.794 4.236 2.534 11.746 6.333 14.29 2.77 1.855 9.94 1.132 14.297-1.442 4.996-2.951 5.38-1.398 3.812 15.387-2.091 22.369-1.844 63.473.45 74.805 3.399 16.796 8.499 28.317 17.337 39.168 5.375 6.599 5.44 6-1.294 11.814-10.988 9.486-12.414 19.662-3.767 26.876 7.213 6.019 12.414 5.521 21.911-2.098 13.087-10.5 16.438-12 21.795-9.762 33.646 14.058 93.536 12.824 127.65-2.629l6.466-2.93 7.534 8.001c10.86 11.534 15.777 13.035 24.192 7.382 8.587-5.768 7.564-16.407-2.674-27.805-5.43-6.046-5.439-4.929.09-12.049 16.211-20.876 24.3-59.968 21.823-105.458-1.077-19.793-.902-22.425 1.426-21.468 2.795 1.149 9.899 1.754 12.608 1.074 2.83-.71 7.599-8.836 7.526-12.823-.117-6.391-9.436-15.132-17.406-16.328-7.507-1.125-6.982 1.543-7.709-39.168-.666-37.336-1.597-50.614-4.682-66.787-2.117-11.102-2.007-11.656 2.844-14.383 9.134-5.133 13.825-15.234 12.087-26.026-3.379-20.983-22.898-32.253-41.786-24.127l-5.089 2.189-4.858-3.459c-18.358-13.069-52.388-20.053-87.859-18.03m41.524 24.875c-25.68 7.203-34.675 36.623-16.358 53.507 13.475 12.421 38.332 11.622 51.613-1.658 14.932-14.932 9.095-42.477-10.779-50.869-5.66-2.39-17.728-2.873-24.476-.98m-91.524 3.806c-39.056 12.944-28.856 66.152 11.951 62.342 28.087-2.623 42.219-30.806 26.059-51.97-7.183-9.408-25.686-14.457-38.01-10.372m75.417 20.437c-7.713 6.892-2.9 21.218 7.129 21.218 3.348 0 7.772-3.097 9.438-6.607 5.586-11.772-7.161-23.014-16.567-14.611m-91.016 3.324c-3.407 3.648-4.099 11.738-1.34 15.677 7.718 11.02 23.754 1.791 19.466-11.202-2.638-7.992-12.554-10.44-18.126-4.475m100.689 6.748c-.993 1.607.553 4.265 2.286 3.931 2.13-.41 2.104-4.165-.033-4.577-.911-.175-1.925.116-2.253.646m-90 3c-.993 1.607.553 4.265 2.286 3.931 2.13-.41 2.104-4.165-.033-4.577-.911-.175-1.925.116-2.253.646m44.766 33.21c-3.451 1.277-6.823 6.899-6.711 11.19.202 7.69 5.342 9.525 16.095 5.746 7.658-2.691 13.96-2.545 21.452.5 7.851 3.19 9.32 3.142 12.885-.423 4.96-4.96 3.43-9.682-5.04-15.551l-4.114-2.851-4.211 2.412c-5.895 3.377-20.987 3.558-25.392.305-2.012-1.486-3.478-1.878-4.964-1.328m9.4 20.364-6.744 2.072-.004 5c-.009 9.49 4.878 15.466 9.706 11.869 2.597-1.935 2.831-2.715 3.453-11.472.368-5.167.593-9.428.5-9.468-.092-.041-3.202.859-6.911 1.999m10.911-1.761c-.367.366-.667 4.624-.667 9.461 0 11.326 2.499 14.534 9.308 11.945 3.099-1.178 3.914-4.454 3.095-12.444l-.648-6.322-4.627-1.658c-5.204-1.865-5.529-1.915-6.461-.982m119.344 82.495c.024 9.511.834 11.436 5.99 14.242 2.623 1.428 5.96 2.596 7.416 2.596 3.57 0 4.63-2.893 1.758-4.8-1.196-.794-2.175-2.064-2.175-2.822 0-1.581 3.571-1.881 4.5-.378 1.017 1.646 2.5 1.133 2.5-.865 0-4.653-7.589-10.244-15.75-11.603l-4.25-.708.011 4.338m-244.787-1.693c-7.442 2.324-13.154 6.988-13.202 10.781-.025 2.013 2.018 2.31 3.778.55.933-.933 1.478-.918 2.45.071 1.003 1.02.784 1.652-1.108 3.198-6.402 5.231 2.099 6.583 10.915 1.736 6.319-3.473 6.909-4.542 6.929-12.555.016-5.996-1.183-6.46-9.762-3.781M493 450.217c-3.575 2.769-6.61 5.315-6.744 5.659-.657 1.679 15.361 17.123 17.744 17.109 5.149-.032 5.58-1.309 2.5-7.398-1.556-3.075-2.55-5.871-2.208-6.213 1.385-1.384 3.923.857 5.816 5.138 2.341 5.291 3.892 5.036 3.892-.641 0-4.678-3.877-10.975-9.723-15.794-4.52-3.726-3.435-3.932-11.277 2.14m-179 1.138c-7.529 5.53-11 10.144-11 14.621 0 2.148.45 4.184 1 4.524.55.34 1 .23 1-.245 0-2.531 6.193-10.462 7.303-9.352.9.9.492 2.438-1.742 6.569-5.796 10.715 1.8 11.621 13.934 1.662 3.988-3.273 8.699-6.7 10.469-7.615l3.217-1.664-8.047-4.952c-4.425-2.723-8.317-5.391-8.649-5.927-1.012-1.637-2.785-1.073-7.485 2.379" fill-rule="evenodd"/><path fill="#7f9ea3" stroke="#7f9ea3" d="M393 92.635c-28.778 3.641-50.726 10.787-66.074 21.513l-5.574 3.895-4.788-2.118c-32.108-14.203-57.636 32.507-26.551 48.582 3.494 1.807 3.437 1.207 1.386 14.567-1.926 12.549-1.379 53.11 1.045 77.426.823 8.25 1.509 17.305 1.526 20.121l.03 5.121-5.25.695c-9.762 1.292-18.197 6.4-20.752 12.567-1.167 2.817 2.413 12.28 5.383 14.231 2.464 1.617 8.541.656 13.886-2.196 6.98-3.725 6.816-4.25 5.001 15.965-5.355 59.681 0 93.247 18.415 115.414l5.747 6.918-2.965 2.075c-14.975 10.479-17.832 19.881-8.611 28.339 6.884 6.315 9.831 5.776 22.541-4.124 12.826-9.99 13.539-10.162 25.454-6.118 37.107 12.593 92.672 10.309 123.232-5.066 5.545-2.789 5.878-2.622 16.437 8.241 9.539 9.813 13.417 10.544 21.028 3.962 7.18-6.208 4.904-15.793-6.25-26.328l-4.429-4.182 4.48-5.5c18.028-22.134 24.41-50.382 23.408-103.603l-.539-28.646 4.642 2.276c8.23 4.034 11.719 2.961 15.62-4.804 4.756-9.47-1.58-17.306-16.478-20.379l-5.5-1.134-.644-35.423c-.688-37.86-1.814-53.957-4.912-70.218-2.496-13.098-2.487-13.237 1.006-14.683 7.898-3.272 13.992-12.869 14.028-22.093.084-21.381-22.054-35.564-40.902-26.204l-4.425 2.198-6.728-4.473c-11.187-7.438-23.06-11.927-39.664-14.999-8.525-1.577-45.25-2.829-53.259-1.815m11 2.107c-7.961.427-28.26 3.399-36.596 5.358-60.161 14.136-81.576 56.232-72.727 142.963 2.212 21.675 2.377 67.066.316 86.437-3.612 33.941-1.345 67.768 5.725 85.45 13.855 34.649 47.986 53.388 99.782 54.782 67.097 1.806 107.16-20.808 120.974-68.286 5.874-20.188 7.982-53.744 5.618-89.446-.601-9.075-1.545-36.3-2.099-60.5-2.003-87.635-8.659-113.361-34.993-135.25-17.951-14.922-51.659-23.352-86-21.508m101.326 17.356c-2.295.424-5.613 1.516-7.374 2.427l-3.2 1.655 4.792 4.865c2.636 2.676 5.196 4.616 5.689 4.311.493-.305 2.464-.26 4.38.099 5.991 1.124 9.354 9.291 5.873 14.261-1.378 1.968-1.28 2.857 1.1 9.972 3.213 9.605 2.492 9.042 7.689 5.997 22.18-12.999 6.811-48.352-18.949-43.587m-63.826 1.311c-37.387 9.264-39.33 58.596-2.647 67.231 25.059 5.898 48.509-9.62 48.566-32.14.065-25.254-20.916-41.286-45.919-35.091m-1 2.937c-29.874 9.893-35.367 44.604-9.296 58.74 6.127 3.322 6.605 3.414 17.796 3.414 12.873 0 17.591-1.465 25.449-7.905 13.032-10.679 13.949-32.293 1.934-45.592-7.772-8.604-24.129-12.55-35.883-8.657m-142.797 1.039c-20.635 7.671-25.898 31.261-9.367 41.979 5.627 3.649 6.213 3.427 8.454-3.208l1.974-5.844-3.26-2.601c-8.617-6.876-2.259-18.927 8.474-16.063l3.933 1.05 5.521-6.249 5.522-6.25-4.173-1.67c-5.89-2.357-12.606-2.806-17.078-1.144m51.321.15c-16.393 4.608-25.91 15.967-26.782 31.965-1.599 29.334 30.71 46.197 57.938 30.24 24.014-14.073 21.832-49.783-3.713-60.759-6.649-2.857-19.932-3.557-27.443-1.446m5.019 1.643c-24.431 3.874-36.715 27.118-25.358 47.984 10.049 18.464 40.755 21.331 56.784 5.303 12.121-12.122 11.483-34.296-1.312-45.558-7.48-6.585-18.881-9.511-30.114-7.729m73.213 19.851c-5.318 2.138-7.628 10.278-4.679 16.493 4.855 10.229 19.423 6.397 19.423-5.11 0-9.472-6.676-14.627-14.744-11.383M334.4 144.4c-7.326 7.326-2.831 19.523 7.215 19.578 5.252.028 9-2.836 10.371-7.925 3.15-11.698-9.294-19.945-17.586-11.653m100.561 6.147c-1.579 1.902-.414 4.686 1.786 4.267 2.198-.419 2.874-4.362.879-5.127-.814-.313-2.013.074-2.665.86m-90 3c-1.579 1.902-.414 4.686 1.786 4.267 2.198-.419 2.874-4.362.879-5.127-.814-.313-2.013.074-2.665.86m56.852 18.035c-4.669 1.436-11.245 7.652-10.476 9.902.19.559-1.495 1.935-3.745 3.059-9.975 4.981-11.321 20.165-2.128 24.006 3.405 1.423 3.537 1.672 3.558 6.714.053 12.651 8.994 19.902 15.573 12.632 1.72-1.901 1.77-1.901 3.824.023 3.619 3.39 6.718 4.04 10.569 2.218 4.999-2.366 6.215-5.329 5.494-13.386l-.603-6.75h4.16c3.399 0 4.784-.623 7.561-3.4 6.221-6.221 4.042-14.449-5.454-20.603-3.465-2.244-5.239-4.145-5.66-6.06-1.713-7.799-12.073-11.617-22.673-8.355M419 187.891c-6.301 3.588-19.241 3.783-23.874.359-3.527-2.606-4.896-2.739-7.546-.734-5.849 4.426-7.316 12.319-3.128 16.838 3.022 3.261 4.106 3.272 14.548.146 10.228-3.061 10.794-3.061 19.5.017 8.801 3.111 12.535 3.168 15.177.233 4.341-4.823 3.33-10.232-2.779-14.863-6.169-4.676-6.96-4.808-11.898-1.996m-20.685 19.373c-7.178 2.414-7.92 3.819-6.213 11.778 1.845 8.601 6.373 11.275 10.912 6.443 2.362-2.514 4.369-20.645 2.257-20.393-.424.051-3.554 1.028-6.956 2.172M409 214.943c0 9.142.179 10.069 2.223 11.5 5.416 3.794 10.782.679 10.766-6.25-.023-9.7-.86-11.924-5.13-13.633-7.663-3.066-7.859-2.856-7.859 8.383m119.599 68.933c-.2.343-.132 4.112.151 8.376l.513 7.752 6.282 3.093c6.56 3.229 9.719 3.262 10.928.115.433-1.127-.048-2.181-1.408-3.084-3.581-2.379-2.695-5.163.924-2.903 3.36 2.098 4.682-.39 2.342-4.407-2.866-4.918-18.064-11.807-19.732-8.942m-247.286 3.223c-5.16 1.983-11.313 7.628-11.313 10.377 0 2.123 1.71 2.749 4.065 1.489 3.036-1.625 3.848-.128 1.127 2.078-1.91 1.549-2.12 2.224-1.215 3.914 1.597 2.984 5.107 2.551 13.05-1.61l6.973-3.652V285l-3.75.052c-2.062.029-6.084.95-8.937 2.047m213.173 161.222c-2.758 2.299-6.114 4.897-7.458 5.773l-2.445 1.595 7.435 8.128c8.167 8.929 11.545 11.023 14.891 9.232 2.689-1.439 2.633-2.733-.364-8.369-1.351-2.539-2.062-4.861-1.58-5.158 1.116-.69 4.896 4.074 5.665 7.14.775 3.087 3.168 2.989 3.959-.162 1.308-5.21-3.749-14.334-11.018-19.878-4.12-3.142-3.032-3.346-9.085 1.699m-182.294 3.783c-9.267 7.401-11.419 11.539-9.128 17.563l1.063 2.798 3.176-5.732c1.746-3.153 3.743-5.733 4.436-5.733 1.793 0 1.58.965-1.213 5.5-7.565 12.282 2.154 13.511 15.58 1.97 2.967-2.551 7.124-5.53 9.238-6.622l3.843-1.984-7.177-4.425c-3.947-2.434-8.325-5.328-9.728-6.432-3.29-2.588-2.769-2.748-10.09 3.097" fill-rule="evenodd"/><path fill="#121d1f" stroke="#121d1f" d="M388 94.003c-28.378 4.057-46.326 10.169-60.953 20.758l-5.453 3.947-4.547-2.074c-6.543-2.984-17.928-2.932-24.102.111-14.834 7.31-21.487 25.871-13.413 37.419 2.647 3.786 10.171 9.904 13.577 11.039.852.284.706 3.009-.555 10.341-2.817 16.378-3.033 36.653-.704 65.956 1.137 14.3 2.198 29.371 2.359 33.492l.291 7.492-6.149.686c-7.447.832-12.979 3.504-17.196 8.306-3.669 4.179-3.848 5.742-1.239 10.858 4.036 7.917 7.952 8.721 17.545 3.601 3.159-1.685 5.999-2.808 6.312-2.496.313.313-.192 11.03-1.121 23.815-4.444 61.17.226 88.608 18.92 111.15l5.726 6.904-2.899 2.086c-15.306 11.017-18.238 19.282-9.649 27.204 7.388 6.814 10.098 6.133 25.997-6.531 8.394-6.686 10.884-7.031 22.991-3.184 38.277 12.161 88.152 10.305 120.157-4.473 8.611-3.975 7.184-4.536 18.605 7.31 8.958 9.29 11.644 10.208 18.133 6.198 9.493-5.867 8.538-14.791-2.804-26.21l-5.753-5.792 5.039-6.208c18.324-22.575 26.164-61.306 23-113.625-.613-10.13-.98-18.552-.815-18.716.164-.164 2.49.811 5.169 2.167 7.177 3.634 14.531 2.489 14.531-2.262 0-.888.728-2.419 1.619-3.403 5.3-5.857-5.08-16.32-18.285-18.432-5.216-.834-5.314-1.518-5.325-37.487-.012-35.149-1.753-56.233-6.574-79.624-.606-2.939-.36-3.324 3.333-5.208 5.879-2.999 11.822-10.242 13.234-16.127 5.246-21.867-19.45-41.2-39.492-30.917l-4.99 2.56-7.213-4.894C463.734 95.103 424.589 88.772 388 94.003m2 1.469c-77.721 10.155-104.652 49.454-96.643 141.028 3.926 44.899 4.036 50.622 1.603 83.527-3.411 46.137-2.915 66.316 2.101 85.466 8.96 34.207 34.838 54.801 79.439 63.22 12.925 2.439 49.276 2.394 62.5-.077 54.84-10.251 79.061-35.011 88.172-90.136 1.639-9.913 1.64-59.554.003-77-.62-6.6-1.383-28.425-1.697-48.5-1.207-77.195-6.705-105.214-24.982-127.304C480.139 101.091 437.1 89.318 390 95.472m111 17.172c-6.609 2.274-6.719 2.72-2.049 8.298 3.776 4.51 4.664 5.058 8.188 5.058 7.189 0 11.491 7.8 7.469 13.542-1.968 2.811 3.351 19.15 6.061 18.618 8.249-1.619 16.004-13.354 15.034-22.751-1.8-17.439-18.447-28.359-34.703-22.765m-62 2.175c-7.519 2.495-9.599 3.726-15.288 9.047-17.546 16.412-13.513 43.227 8.098 53.84 8.843 4.342 25.783 4.171 35.341-.357 13.603-6.445 19.336-15.291 19.344-29.849.008-14.816-6.911-26.195-19.275-31.698-6.694-2.979-20.73-3.468-28.22-.983m3.251.663c-41.003 11.537-35.451 64.127 6.749 63.936 26.849-.121 42.9-21.076 34.084-44.497-5.855-15.556-23.976-24.183-40.833-19.439m-146.624 1.986c-10.546 3.759-17.127 13.186-17.127 24.531 0 8.453 1.86 12.123 8.846 17.452 5.885 4.488 7.695 3.945 9.941-2.979l1.956-6.029-3.621-3.621c-7.411-7.411-1.771-16.991 8.627-14.655 3.96.89 4.025.856 9.324-4.885 2.935-3.18 5.357-6.302 5.382-6.938.136-3.477-16.045-5.472-23.328-2.876m51.86 1.331c-14.33 4.955-22.381 13.758-24.502 26.793-2.466 15.153 5.197 29.786 19.015 36.311 7.664 3.619 23.49 3.732 32.285.23 29.657-11.807 29.189-53.433-.713-63.478-6.56-2.203-19.504-2.132-26.085.144m3.013.61c-17.001 4.213-26.036 15.383-25.958 32.091.09 19.141 13.519 31.951 33.458 31.917 21.829-.038 36.494-13.301 36.396-32.917-.117-23.173-19.744-37.075-43.896-31.091m77.888 19.571c-6.8 2.748-8.799 13.763-3.465 19.097 3.922 3.922 8.854 3.987 13.123.173 8.755-7.823.883-23.529-9.658-19.27m-92.125 4.127c-8.641 5.534-5.675 19.223 4.461 20.583 11.299 1.515 15.647-15.827 5.309-21.173-3.894-2.014-5.893-1.893-9.77.59m98.121 7.335c-1.645 4.286 2.514 7.487 4.618 3.554.858-1.602.844-2.476-.055-3.56-1.532-1.846-3.854-1.843-4.563.006m-90.278 3.36c-.744 1.39-.664 2.42.288 3.722 1.951 2.668 4.822 1.201 4.423-2.26-.382-3.307-3.247-4.197-4.711-1.462m56.901 18.791c-4.63 2.008-7.768 5.064-8.503 8.283-.411 1.804-1.843 3.201-4.58 4.47-9.782 4.536-10.494 21.052-.998 23.138 2.611.573 2.984 1.026 2.485 3.013-.323 1.287-.052 4.917.603 8.068 2 9.638 7.643 12.966 14.006 8.262 2.672-1.976 3.101-2.033 4.71-.629 3.883 3.389 6.037 3.926 9.667 2.41 4.761-1.99 5.832-4.54 5.441-12.952l-.333-7.156 4.887-.561c12.86-1.478 13.22-14.846.619-22.932-2.756-1.768-5.011-3.822-5.011-4.564 0-7.918-13.32-13.045-22.993-8.85m-14.411 15.457c-4.525 3.973-6.151 8.738-4.593 13.458 2.032 6.16 6.905 7.147 17.404 3.528 7.717-2.66 12.756-2.539 20.093.483 7.944 3.273 10.953 3.181 14.577-.442 5.129-5.13 3.183-11.641-5.155-17.241-5.04-3.385-4.898-3.373-9.276-.79-7.174 4.233-20.621 4.205-25.152-.052-2.834-2.662-3.812-2.532-7.898 1.056m22.039 19.025c-3.053 15.265 1.834 24.837 10.415 20.399 2.934-1.517 2.95-1.575 2.95-10.486v-8.961l-3.357-1.403c-7.497-3.132-9.308-3.051-10.008.451m-11.135-.263c-5.883 1.907-6.466 2.555-6.479 7.188-.027 9.571 4.804 16.176 9.903 13.539 4.357-2.253 4.857-3.523 5.226-13.29.4-10.578.575-10.428-8.65-7.437m130.515 82.938c.018 8.36 1.265 10.842 6.97 13.87 8.744 4.641 16.252.956 9.765-4.793-2.042-1.81-2.065-1.93-.25-1.3 3.863 1.342 4.995 1.012 5.294-1.542.582-4.984-11.33-12.985-19.332-12.985-2.374 0-2.461.24-2.447 6.75m-241.671-4.726c-8.906 1.799-16.344 7.538-16.344 12.611 0 2.597 2.701 3.264 4.783 1.182.651-.651 1.529-.827 1.95-.391.422.436-.245 1.473-1.483 2.305-4.367 2.936-1.164 8.268 4.038 6.722 12.677-3.769 16.167-7.804 15.527-17.956-.354-5.618-1.033-5.976-8.471-4.473m207.626 163.26c-3.042 2.319-6.642 4.965-8 5.881l-2.47 1.665 9.094 9.085c7.459 7.451 9.64 9.085 12.128 9.085 5.959 0 6.05-2.413.496-13.25-.212-.413.132-.75.762-.75.631 0 2.131 2.238 3.334 4.974 2.359 5.369 3.507 5.77 5.4 1.891 1.952-4-.348-9.401-7.062-16.577-6.945-7.425-6.632-7.379-13.682-2.004m-181.884 3.232c-8.716 6.416-11.863 12.691-9.479 18.902.97 2.527 1.892 1.908 5.282-3.546 4.049-6.514 5.153-5.751 1.421.982-3.306 5.964-2.575 8.452 2.635 8.966 3.636.36 7.294-1.739 16.003-9.179 2.997-2.56 6.935-5.192 8.75-5.849 4.313-1.559 4.168-2.311-.948-4.912-2.337-1.189-6.813-3.898-9.945-6.021-7.019-4.756-6.321-4.79-13.719.657" fill-rule="evenodd"/></svg>