<svg xmlns="http://www.w3.org/2000/svg" viewBox="0 0 860 1186"><path fill="#f3f3f3" stroke="#f3f3f3" d="M494.357 42.5c.28 1.1 1.721 6.05 3.203 11 4.086 13.652 4.081 36.777-.01 50.5-10.459 35.078-37.883 69.075-93.553 115.974-3.573 3.01-6.722 5.722-6.997 6.025-.275.303-5.299 4.471-11.165 9.262-5.866 4.792-11.266 9.282-12 9.98-.734.697-3.81 3.28-6.835 5.738C267.84 331.572 247.294 377.754 279.788 447c16.087 34.281 53.17 78.336 98.212 116.678 17.947 15.278 41.908 33.747 42.724 32.931.199-.199-3.427-6.65-8.058-14.334-21.701-36.007-39.428-71.736-58.011-116.915-10.72-26.066-12.2-35.301-8.228-51.36 6.379-25.789 24.004-50.132 73.489-101.5 16.661-17.295 34.147-36.133 43.348-46.701 63.47-72.894 77.344-135.426 44.663-201.299-5.171-10.423-14.454-25.473-13.57-22M640.5 230.469c-129.959 20.834-205.411 77.646-213.398 160.68-2.835 29.471 4.596 50.588 32.592 92.615 16.571 24.877 23.366 37.707 26.335 49.727 6.127 24.805-3.402 50.009-29.659 78.45-3.779 4.093-6.111 7.155-5.183 6.806.929-.35 3.629-1.145 6-1.767 37.524-9.841 71.627-36.379 85.298-66.378 15.261-33.488 11.265-56.027-20.05-113.102-30.329-55.279-25.104-76.04 32.065-127.418 16.649-14.962 25.597-22.072 58.5-46.485 8.018-5.949 14.457-10.385 33.75-23.253 9.487-6.328 17.25-11.694 17.25-11.924 0-.959-10.385-.053-23.5 2.049m-381 346.634c-14.711.696-22.858 1.417-51 4.514-28.251 3.11-60.935 11.328-78.791 19.811-31.988 15.199-37.142 41.126-11.403 57.373 18.64 11.767 54.584 21.447 93.641 25.218 5.804.56 14.378 1.448 19.053 1.973 32.075 3.599 124.457 3.36 173-.45 72.268-5.671 158.256-17.991 166-23.785 1.375-1.028 10.825-7.989 21-15.468 18.065-13.278 37.343-28.587 39.945-31.723 1.762-2.123-.056-2.072-12.556.35C517.069 634.55 284.342 641.708 229 626.891c-9.843-2.635-12-4.093-12-8.113 0-10.02 29.959-24.932 75-37.331 19.434-5.35 19.424-5.297 1-5.219-9.075.039-24.15.432-33.5.875m438.621.024c-15.576 2.587-41.759 14.21-51.373 22.805-.414.37 5.886.492 14 .272 21.439-.583 33.175 2.639 47.443 13.027 27.133 19.753 30.331 50.079 9.624 91.269-14.451 28.746-46.507 64.46-83.015 92.487-5.335 4.096-9.526 7.62-9.314 7.832 1.387 1.387 30.89-5.637 49.187-11.711 79.788-26.486 122.108-80.082 115.554-146.342-4.912-49.661-42.281-77.915-92.106-69.639M254 694.647c-38.719 5.799-71.774 27.539-73.791 48.531-3.206 33.363 91.037 59.671 205.791 57.447 55.85-1.082 96.883-6.315 146-18.62 21.368-5.353 62.168-18.839 64.722-21.393.183-.183-4.208-3.208-9.756-6.723a4146.855 4146.855 0 0 1-14.778-9.397c-12.25-7.86-34.825-22.232-35.962-22.896-.7-.409-4.075.136-7.5 1.212-27.173 8.531-60.875 14.796-101.726 18.911-25.094 2.528-90.31 2.528-111 0-58.336-7.129-79.519-21.466-61.434-41.581 5.788-6.438 5.788-6.443-.566-5.491m25 111.034c-9.951 1.625-18.817 3.791-23.796 5.814-27.936 11.352-44.603 35.656-36.263 52.882 23.896 49.364 221.335 55.985 331.059 11.102 8.912-3.646 30-14.582 30-15.559 0-1.546-65.311-44.073-66.916-43.572-.871.273-5.154 1.866-9.516 3.541-7.301 2.803-16.673 5.57-32.068 9.468-57.479 14.553-149.817 15.947-177.035 2.673-11.505-5.612-14.558-13.833-8.215-22.124 1.512-1.977 2.75-3.89 2.75-4.25 0-.688-5.726-.673-10 .025M122.5 860.63c-37.828 5.823-61.424 15.448-78.121 31.868-31.349 30.829-8.501 69.693 55.754 94.836 41.815 16.363 113.001 30.499 174.762 34.705 7.483.51 18.78 1.408 25.105 1.996 17.886 1.663 110.918 2.397 136.5 1.077 111.423-5.749 198.671-21.743 255.286-46.797 44.338-19.622 65.723-41.854 65.709-68.315-.008-16.914-8.465-27.481-32.13-40.149-6.357-3.403-6.571-3.187-4.245 4.285 9.59 30.815-20.249 58.115-83.62 76.502-146.028 42.369-453.185 29.523-504.091-21.083-9.805-9.748-10.704-16.531-3.302-24.939 11.509-13.075 39.541-21.414 68.327-20.325 7.736.293 15.078.85 16.316 1.237 4.781 1.498 1.866-1.242-6.412-6.028-9.104-5.263-9.602-5.554-21.053-12.298-3.968-2.337-9.368-4.709-12-5.27-4.975-1.061-47.529-2.111-52.785-1.302m696 111.054c-112.697 97.753-365.515 131.207-614.5 81.315-14.516-2.909-37.115-7.85-40.737-8.907-1.823-.532-3.471-.564-3.775-.072-.297.479.935 1.313 2.736 1.852 1.802.539 6.651 2.397 10.776 4.129 30.823 12.945 81.214 27.979 125 37.294 28.765 6.118 70.517 12.397 98 14.735 6.325.538 17.125 1.53 24 2.203 23.306 2.283 109.123 1.605 137-1.082 46.688-4.5 87.668-11.556 122.5-21.092 88.789-24.307 146.588-67.716 150.207-112.809.32-3.987.404-7.218.187-7.179-.217.04-5.344 4.366-11.394 9.613" fill-rule="evenodd"/><path fill="#d2d6e4" stroke="#d2d6e4" d="M495.458 44.5c15.738 46.4 1.124 86.799-49.946 138.072-16.914 16.981-27.013 25.946-63.512 56.383-61.725 51.474-85.043 74.925-101.395 101.974-26.992 44.65-16.347 95.395 32.901 156.839 24.032 29.983 71.326 73.993 103.449 96.265l3.455 2.395-2.569-4.464c-1.413-2.455-6.157-10.539-10.543-17.964-21.752-36.823-48.492-93.1-60.48-127.286-4.858-13.852-2.747-32.565 5.692-50.462 10.671-22.628 22.341-37.102 71.632-88.838 38.577-40.49 52.584-56.962 68.131-80.119 36.884-54.939 42.028-108.029 15.675-161.795-4.778-9.749-13.844-24.991-12.49-21M650 229.59c-28.485 3.406-67.197 12.805-95.535 23.197-82.855 30.383-130.693 88.224-127.13 153.713 1.32 24.271 8.138 40.169 33.665 78.5 21.421 32.166 26.97 45.13 26.97 63 0 20.395-10.212 41.703-29.847 62.275-8.866 9.289-8.634 9.369 8.877 3.057 63.598-22.925 95.479-74.484 78.463-126.892-3.019-9.296-10.195-24.665-18.415-39.44-29.043-52.196-30.605-70.982-8.357-100.5 20.12-26.695 67.201-66.044 126.239-105.508 16.622-11.111 19.408-13.183 17.32-12.885-.413.059-5.925.726-12.25 1.483M279 576.666c-117.559 3.574-185.871 28.308-175.615 63.587 14.943 51.402 236.137 64.575 446.115 26.569 16.597-3.005 17.154-3.187 23.5-7.678 21.513-15.227 59.551-44.926 58.67-45.807-.186-.186-6.375.77-13.754 2.124-42.82 7.858-93.84 13.052-172.916 17.606-29.4 1.693-129.107 2.356-155 1.03-48.448-2.48-74-7.421-74-14.311 0-10.941 28.926-25.692 76-38.757 6.325-1.755 12.625-3.569 14-4.031 2.45-.823-7.023-.94-27-.332m419.5.923c-14.904 2.626-30.85 9.056-44.863 18.092-7.976 5.142-8.03 5.494-.637 4.119 21.426-3.983 46.865 4.005 62.583 19.653 17.835 17.757 20.829 38.485 9.924 68.716-12.581 34.877-49.803 79.175-93.901 111.752-3.169 2.341-5.591 4.427-5.383 4.636 1.766 1.765 42.941-9.226 60.44-16.134 68.304-26.965 103.701-71.351 103.612-129.923-.086-56.641-38.301-90.332-91.775-80.911m-456 119.399c-33.36 7.586-62.608 30.263-62.478 48.44.127 17.818 34.919 36.022 87.978 46.033 101.323 19.116 241.07 6.52 323.966-29.2l4.465-1.924-5.465-3.488c-60.189-38.417-55.563-35.977-63.09-33.282-7.271 2.603-35.452 9.169-50.876 11.853-94.353 16.421-204.325 9.887-225.354-13.39-6.303-6.977-5.381-13.432 3.182-22.28l4.597-4.75-4.463.084c-2.454.047-8.062.903-12.462 1.904m27 110.668c-21.643 4.615-42.236 18.917-49.362 34.281-17.941 38.683 48.903 64.703 161.254 62.772 74.52-1.281 138.569-14.107 183.806-36.808 17.542-8.803 19.84-4.946-17.851-29.957l-32.772-21.747-5.037 2.014C471.35 833.478 405.775 843.236 352 841.653c-54.514-1.605-77.564-12.363-66.594-31.082l2.678-4.571-5.792.082c-3.186.044-8.942.753-12.792 1.574M125 861.104c-41.514 3.623-78.551 21.992-90.634 44.95C31.795 910.94 31.5 912.476 31.5 921c0 26.52 24.868 49.511 73 67.49 151.42 56.558 478.251 47.168 601.5-17.281 49.578-25.926 65.831-62.946 38.593-87.902-5.722-5.243-23.087-16.147-24.1-15.133-.226.226.293 3.092 1.154 6.369 12.208 46.455-57.664 81.698-190.147 95.909-186.294 19.984-401.131-8.511-406.245-53.884-2.13-18.892 40.478-36.543 78.734-32.617 5.683.583 10.525.868 10.76.633.822-.822-34.062-20.867-37.764-21.699-10.603-2.382-35.373-3.231-51.985-1.781m697.945 107.282C770.924 1017.809 670.62 1055.231 552 1069.47c-44.55 5.348-57.5 6.006-118.5 6.018-77.471.016-124.336-3.801-196.964-16.041-20.102-3.388-62.262-11.897-71.266-14.383-6.394-1.765-2.048.701 8.73 4.955 33.535 13.235 80.488 27.554 113 34.46 21.462 4.559 27.658 5.785 40.5 8.012 185.772 32.216 386.481 3.633 468.5-66.718 18.078-15.507 29.664-34.212 33.007-53.289 1.914-10.919 1.448-11.234-6.062-4.098" fill-rule="evenodd"/><path fill="#f44435" stroke="#f44435" d="M497.105 48.5c10.106 28.334 3.987 62.489-16.805 93.811-17.564 26.459-40.019 48.554-101.653 100.024-77.622 64.821-102.595 94.248-110.347 130.021-12.506 57.718 37.844 135.827 136.7 212.063a6056.99 6056.99 0 0 1 12.914 9.975c1.721 1.347.698-.713-4.915-9.894-22.569-36.916-44.415-81.314-62.61-127.246-11.28-28.475-7.899-49.674 12.879-80.754 10.717-16.03 21.28-28.091 61.971-70.763 43.619-45.741 62.912-69.811 78.005-97.317 21.093-38.442 26.155-77.154 15.091-115.409-3.788-13.097-14.634-36.885-20.568-45.11l-1.732-2.401 1.07 3M648.5 230.181C512.923 248.1 428.016 313.8 427.743 401c-.083 26.456 6.375 42.701 32.799 82.5 22.578 34.006 27.907 46.35 27.845 64.5-.073 21.215-10.389 42.411-31.27 64.25-5.246 5.487-5.146 5.532 5.037 2.28 48.265-15.416 82.004-50.418 86.957-90.213 2.762-22.198-2.898-41.547-22.67-77.498-33.876-61.595-32.261-78.052 12.009-122.396 26.086-26.129 56.97-50.55 103.834-82.103 21.548-14.508 21.36-14.141 6.216-12.139M704 576.97c-12.973 1.658-24.801 5.394-37.846 11.953-6.745 3.391-17.154 9.728-17.154 10.443 0 .124 5.589.039 12.42-.189 39.664-1.32 70.585 23.418 70.579 56.467-.009 41.924-36.964 96.367-95.862 141.225-10.547 8.032-10.491 8.08 5.523 4.617C735.62 781.172 790 728.903 790 658.904c0-53.994-36.031-88.322-86-81.934m-439 .617c-1.375.157-10.15.786-19.5 1.398-90.08 5.887-142.532 26.142-142.468 55.015.076 34.622 73.461 53.5 207.968 53.5 86.29 0 167.225-7.311 243.35-21.982 14.652-2.824 10.403-.305 46.65-27.655 16.59-12.519 33.087-26.244 29.404-24.465-1.652.798-27.989 5.282-44.404 7.56-128.277 17.802-335.98 19.951-365.384 3.781-12.866-7.076 2.254-20.407 38.093-33.585 8.874-3.263 35.85-11.544 43.791-13.444 2.102-.502-33.183-.619-37.5-.123m-15 118.418c-19.983 2.698-42.416 13.119-56.561 26.274-26.996 25.106-10.423 46.69 48.145 62.705C301.009 801.233 392.335 804.6 470 793.405c41.592-5.996 90.866-18.555 120.237-30.646l5.738-2.362-28.162-17.949c-15.489-9.871-29.244-18.544-30.566-19.271-2.072-1.14-3.399-1.021-9.576.859-88.243 26.866-232.51 28.082-271.371 2.287-11.242-7.461-11.938-16.251-2.131-26.89 2.247-2.438 3.466-4.374 2.708-4.302-.757.072-3.852.465-6.877.874m25.43 111.041c-34.641 4.526-63.334 31.572-56.916 53.651 14.172 48.75 200.303 59.985 317.486 19.164 18.233-6.351 44.247-19.139 42.346-20.815-.465-.41-14.958-10.068-32.206-21.461l-31.359-20.715-11.154 3.958c-64.04 22.726-177.25 28.71-211.603 11.184-10.657-5.436-12.853-15.589-5.248-24.262 1.778-2.028-.245-2.154-11.346-.704M119 862.107c-52.663 5.948-92.114 35.02-87.163 64.231 10.609 62.592 165.171 102.958 377.163 98.5 194.089-4.082 334.452-46.892 347.099-105.864 4.268-19.903-6.077-35.816-31.727-48.801l-4.128-2.089 1.493 5.096c2.489 8.488 1.387 21.095-2.541 29.074-14.289 29.024-70.088 52.102-156.467 64.712C487.901 977.89 374.944 979.96 292 971.928c-113.843-11.025-177.501-35.163-165.994-62.943 6.254-15.097 41.78-27.25 74.898-25.621 6.822.335 12.147.353 11.833.04-.314-.314-7.99-4.975-17.059-10.357l-16.489-9.787-10.844-1.133c-12.262-1.28-38.093-1.291-49.345-.02m702.5 108.062c-117.406 103.545-383.742 135.923-643.345 78.21-6.24-1.387-11.509-2.358-11.709-2.159-.625.626 22.557 9.394 42.729 16.163 63.72 21.382 131.427 34.698 206.825 40.678 25.359 2.012 93.854 2.316 121.393.54 158.242-10.206 273.698-60.046 289.934-125.159 1.524-6.109 3.038-15.486 2.484-15.385-.171.031-3.911 3.232-8.311 7.112" fill-rule="evenodd"/><path fill="#1464bc" stroke="#1464bc" d="M262 577.999c-97.065 6.441-147.033 21.615-157.321 47.771-7.701 19.582 10.811 36.315 52.321 47.293 82.922 21.93 254.879 18.84 392.5-7.054 5.5-1.034 11.575-2.149 13.5-2.477 4.704-.801 46.324-31.204 63.253-46.206 4.08-3.616 3.984-3.795-1.253-2.347-1.925.532-6.425 1.395-10 1.917s-10.55 1.625-15.5 2.45c-19.309 3.218-61.749 8.153-83 9.651-7.7.543-18.725 1.434-24.5 1.98-9.998.946-21.642 1.545-79.997 4.118-57.122 2.518-144.635-.04-173.639-5.077-20.405-3.543-25.593-7.27-21.184-15.218 5.759-10.38 25.059-19.214 77.82-35.618l6.5-2.021-14.5.071c-7.975.038-19.225.384-25 .767m430.5 1.447c-10.191 2.642-16.974 5.205-26.736 10.104-6.86 3.443-18.735 11.178-15.487 10.089 9.231-3.099 31.372-.879 43.908 4.401 54.146 22.806 50.307 81.885-9.685 149.033-10.807 12.097-29.876 29.703-46.277 42.727-11.726 9.312-12.432 9.069 10.414 3.584C738.802 777.738 789.5 727.213 789.5 659c0-40.693-17.367-67.921-50.179-78.674-11.62-3.808-33.911-4.227-46.821-.88m-449 118.062c-11.032 2.48-21.365 6.291-30.311 11.179-15.301 8.359-26.614 18.906-30.654 28.576-11.201 26.807 39.946 50.147 131.259 59.897 24.907 2.659 90.878 3.253 111.206 1.001 6.325-.701 16.225-1.687 22-2.192 41.263-3.604 93.159-15.445 137.027-31.266 10.215-3.684 10.71-4.071 7.847-6.13-1.932-1.389-14.475-9.545-23.487-15.272-8.574-5.448-15.763-9.967-17.184-10.802-.937-.551-4.939-3.112-8.893-5.691l-7.19-4.69-7.81 2.419c-81.624 25.278-222.124 27.786-266.81 4.761-14.989-7.723-17.564-18.304-7.19-29.548l3.46-3.75-3.635.079c-1.999.044-6.335.687-9.635 1.429m28 110.538c-27.85 4.439-53.56 26.773-53.477 46.454.092 21.834 30.261 37.471 89.073 46.166 26.123 3.862 98.307 4.181 127.404.562 58.821-7.316 99.824-18.172 132.5-35.083 4.675-2.42 9.082-4.94 9.794-5.602 1.03-.957-5.228-5.53-30.692-22.428-31.65-21.004-32.014-21.212-34.793-19.782-11.279 5.801-43.717 13.866-76.809 19.095-44.839 7.086-104.066 6.83-130.467-.563-19.212-5.38-26.529-14.58-20.169-25.358 1.175-1.992 2.136-3.821 2.136-4.064 0-.667-8.833-.3-14.5.603M119 862.605c-49.729 6.014-87.737 31.451-87.158 58.331C33.175 982.868 172.531 1024.5 378.5 1024.5c98.094 0 177.868-8.299 247-25.696 6.6-1.661 13.8-3.442 16-3.958 19.976-4.687 59.839-20.987 76-31.075 48.193-30.084 52.686-68.433 10.668-91.053l-7.024-3.781.851 3.281c6.793 26.176-6.982 46.711-42.995 64.094-11.839 5.715-14.486 6.771-29 11.572-88.655 29.321-254.199 38.275-389 21.041-59.198-7.568-102.409-19.414-123.335-33.812-32.838-22.593-1.409-51.613 55.897-51.613h19.063l-10.507-6.25c-5.779-3.437-10.635-6.25-10.793-6.25-.157 0-2.8-1.608-5.872-3.573-9.195-5.882-39.501-8.081-66.453-4.822m704 106.932c-35.65 32.308-91.046 60.226-154.516 77.874a8997.897 8997.897 0 0 0-17.984 5.017c-6.813 1.916-40.397 8.984-54.5 11.47-97.33 17.155-226.481 17.164-336 .024-30.708-4.806-75.52-13.199-84.993-15.919-7.361-2.113-6.675-.828 1.116 2.092 18.37 6.883 31.064 11.339 43.377 15.226 12.847 4.055 17.466 5.42 36.5 10.791 5.877 1.658 18.13 4.625 34.5 8.354 104.956 23.907 240.401 26.857 340.5 7.415 96.797-18.801 160.151-50.332 187.331-93.234 5.751-9.078 11.333-25.963 10.502-31.769-.314-2.189-.655-2.033-5.833 2.659" fill-rule="evenodd"/></svg>