<svg xmlns="http://www.w3.org/2000/svg" viewBox="0 0 1200 630"><path d="M566.5 1.633c-179.141 19.442-306.288 187.448-276.443 365.28C322.274 558.881 520.392 676.725 704 613.135c16.7-5.784 44.181-18.001 45.579-20.263.31-.501-11.087-16.539-25.326-35.641C659.841 470.817 645.139 450.196 594.331 375c-29.172-43.175-57.268-84.625-62.436-92.11l-9.395-13.611-.752 92.021c-.84 102.834-.368 96.824-7.797 99.394-5.152 1.782-21.395 1.645-24.984-.211-6.334-3.275-5.967 4.794-5.967-131.237V205.392l3.553-3.446 3.552-3.446 11.788-.33c18.792-.526 11.726-8.462 67.883 76.239 39.81 60.045 198.93 300.927 201.411 304.904 1.681 2.694 34.735-23.47 53.014-41.964C873.226 487.75 902.042 430.312 913.178 360c3.311-20.909 3.323-69.666.021-89.845-2.854-17.443-6.571-33.871-10.642-47.033C857.723 78.182 716.825-14.681 566.5 1.633m118.535 188.618c-1.928.695-4.479 2.756-5.75 4.647L677 198.296V362.25l19.25 29.556 19.25 29.556.254-111.286c.274-119.937.512-114.349-5.031-118.452-3.428-2.536-20.004-3.423-25.688-1.373" fill-rule="evenodd"/></svg>