<svg xmlns="http://www.w3.org/2000/svg" viewBox="0 0 512 512"><path fill="#2dc7f5" stroke="#2dc7f5" d="M238.5 32.097C95.954 43.75-1.666 186.297 40.403 321.362c1.347 4.323 2.181 8.56 1.853 9.414-.415 1.081-.208 1.313.681.763.957-.592 1.098-.225.563 1.461-.448 1.413-.341 2.02.288 1.631.551-.341 1.275.09 1.607.957.908 2.366.701 3.107-.395 1.412-.533-.825-.969-1.05-.969-.5 0 1.337 1.93 4.278 1.969 3 .039-1.278 1.969 1.663 1.969 3 0 .55-.485.325-1.079-.5-.897-1.248-.979-1.192-.484.332.327 1.007.594 2.046.594 2.309 0 .262.408.225.907-.083.498-.309.698.235.444 1.209-.663 2.535 14.381 32.065 21.841 42.87 93.079 134.821 289.394 131.098 376.329-7.137 7.202-11.451 16.792-31.243 16.061-33.147-.308-.801-.149-1.203.353-.893 1.265.781 5.169-10.025 4.372-12.101-.462-1.204-.281-1.461.63-.898.957.592 1.098.225.563-1.461-.453-1.427-.343-2.021.3-1.624.621.384.795-.207.449-1.531-.361-1.383-.182-1.921.5-1.5.682.421.862-.117.5-1.5-.42-1.607-.229-1.951.748-1.347.828.512 1.07.419.656-.25-.36-.583.46-5.265 1.823-10.404C513.203 165.071 392.251 19.529 238.5 32.097m-77 131.011c-10.067 1.059-13.161 1.983-4.5 1.343 45.26-3.344 67.91-.446 83.031 10.621 5.403 3.954 5.421 3.959 1.5.42-12.956-11.694-42.758-16.306-80.031-12.384m146 50.449c-1.1.254-4.475.955-7.5 1.557-6.447 1.282-15.84 5.997-19.163 9.619-1.691 1.843-1.033 1.564 2.379-1.008 14.213-10.716 41.09-12.438 66.659-4.27 1.541.493 2.153.399 1.741-.267-1.933-3.128-36.09-7.488-44.116-5.631m-87.442 37.489c-7.504 5.084-13.79 6.449-29.713 6.452-7.784.001-13.634.333-13 .737 1.716 1.092 21.576.918 27.695-.243 5.867-1.112 14.095-4.731 17.96-7.899 3.648-2.99 2.171-2.511-2.942.953m79.902 8.406c2.159 2.601 8.088 5.306 22.289 10.171 14.246 4.879 17.522 6.345 22.751 10.18 2.726 1.999 3.101 2.108 1.694.491-2.894-3.326-12.17-7.735-27.057-12.862-7.624-2.626-15.487-5.877-17.473-7.224-2.147-1.458-3.04-1.764-2.204-.756m20.862 63.786c-9.601 4.974-27.51 4.858-42.425-.273-2.968-1.022-5.397-1.481-5.397-1.021 0 1.781 16.662 5.368 27.077 5.83 12.071.535 19.968-1.151 24.638-5.26 3.403-2.995 3.219-2.96-3.893.724" fill-rule="evenodd"/><path fill="#35a3d2" stroke="#35a3d2" d="M228.629 50.55C147.052 61.66 79.888 119.32 56.533 198.294c-1.335 4.513-2.451 7.442-2.48 6.508-.029-.934 1.094-5.329 2.496-9.767s2.232-8.58 1.845-9.206c-.461-.747-.253-.86.606-.329.892.551 1.068.42.553-.414-.415-.672-1.461-.951-2.324-.62-1.749.671-3.19-1.023-3.214-3.775-.009-1.121.46-1.568 1.235-1.176.688.348.463-.012-.5-.801-2.038-1.67-2.3-4.324-.5-5.055.81-.328.898-.798.25-1.333-1.57-1.297-1.687-3.393-.285-5.123.981-1.211.989-1.409.035-.836-1.536.923-1.654-.563-.163-2.054.783-.783.74-1.302-.154-1.855-.801-.494-.988-.357-.528.387.392.635.29 1.155-.227 1.155s-1.455 2.043-2.084 4.541c-.629 2.497-1.805 4.794-2.613 5.105-.808.31-1.218.97-.911 1.468.822 1.329-.559 5.011-1.631 4.349-.504-.312-.648.131-.321.985.329.856.073 1.552-.57 1.552-.641 0-.857.5-.479 1.112.378.611.234 1.399-.32 1.75-4.134 2.62-11.206 40.891-11.946 64.638-4.643 149.182 134.243 260.708 279.05 224.076C431.465 443.192 504.309 319.838 472.908 200c-1.081-4.125-2.251-8.175-2.6-9-.349-.825-.69-1.725-.757-2-.067-.275-.689-1.522-1.383-2.771-.693-1.249-.988-2.711-.655-3.25.333-.538.08-.979-.561-.979s-.907-.675-.59-1.5c.316-.825.183-1.5-.296-1.5-.879 0-3.474-5.862-3.209-7.25.079-.412-.26-.75-.752-.75s-1.067 1.8-1.276 4c-.221 2.311.052 4.006.645 4.015.564.009.453.379-.247.824-1.588 1.007-2.474 5.161-1.102 5.161 1.255 0 .04 4.214-1.51 5.235-.801.528-.783.739.065.75.835.011.929.892.32 3.015-.473 1.65-.554 3.007-.18 3.015.374.009.085.393-.643.854-.925.587-1.118 1.931-.64 4.476.375 2.001.97 3.459 1.323 3.242.352-.218.667.799.701 2.258.033 1.46.367 4.905.741 7.655.417 3.063-.06 1.853-1.231-3.125C433.925 105.491 335.049 36.057 228.629 50.55M170.5 162.072c-6.05.43-12.912 1.068-15.25 1.417l-4.25.634V344h25v-64.752l17.75-.515c26.08-.757 38.454-4.947 50.825-17.211 21.892-21.702 20.551-68.148-2.495-86.364-15.172-11.993-35.276-15.669-71.58-13.086M460 169c0 .55.477 1 1.059 1s.781-.45.441-1-.816-1-1.059-1-.441.45-.441 1m-282.75 14.662c-.968.391-1.25 8.707-1.25 36.836v36.331l7.75.73c22.383 2.105 39.979-5.161 46.97-19.398 3.624-7.381 4.101-26.236.874-34.602-3.848-9.979-12.22-16.524-24.45-19.116-6.268-1.329-27.183-1.875-29.894-.781m277.836 9.838c.104 1.894 1.77 5.084 1.828 3.5.031-.825-.381-2.175-.914-3-.533-.825-.945-1.05-.914-.5M53.079 208.583c.048 1.165.285 1.402.604.605.289-.722.253-1.585-.079-1.917-.332-.332-.568.258-.525 1.312m-1 4c.048 1.165.285 1.402.604.605.289-.722.253-1.585-.079-1.917-.332-.332-.568.258-.525 1.312m248.31 1.851c-17.968 4.068-28.316 15.665-29.183 32.706-1.027 20.158 6.358 27.657 38.781 39.379 18.133 6.556 23.572 11.77 22.711 21.77-1.382 16.055-24.522 22.932-51.125 15.195-9.279-2.699-8.7-2.98-11.363 5.516-3.813 12.16-4.018 11.563 4.796 13.941 50.447 13.612 91.494-11.304 80.15-48.653-4.016-13.223-10.695-18.511-33.376-26.426-21.823-7.616-26.768-11.395-26.776-20.464-.013-13.5 21.182-19.256 44.79-12.164l8.294 2.491 1.298-3.112c1.976-4.738 3.885-13.465 3.286-15.025-1.75-4.562-38.778-8.212-52.283-5.154M51.158 218c0 1.375.227 1.938.504 1.25.278-.687.278-1.812 0-2.5-.277-.687-.504-.125-.504 1.25m-.963 5.5c.02 1.65.244 2.204.498 1.231.254-.973.237-2.323-.037-3-.274-.677-.481.119-.461 1.769m411 0c.02 1.65.244 2.204.498 1.231.254-.973.237-2.323-.037-3-.274-.677-.481.119-.461 1.769m1.057 7c.011 2.2.216 2.982.455 1.738.239-1.244.23-3.044-.02-4s-.446.062-.435 2.262m-413.094.5c0 1.375.227 1.938.504 1.25.278-.687.278-1.812 0-2.5-.277-.687-.504-.125-.504 1.25m414.152 11.5c.005 3.3.192 4.529.415 2.732.222-1.797.218-4.497-.01-6-.229-1.503-.411-.032-.405 3.268M48.232 242c0 1.925.206 2.713.457 1.75.252-.963.252-2.537 0-3.5-.251-.963-.457-.175-.457 1.75m415.02 27.5c.011 2.2.216 2.982.455 1.738.239-1.244.23-3.044-.02-4s-.446.062-.435 2.262m-1.173 11.083c.048 1.165.285 1.402.604.605.289-.722.253-1.585-.079-1.917-.332-.332-.568.258-.525 1.312" fill-rule="evenodd"/><path fill="#3c375f" stroke="#3c375f" d="M239.968 49.955C105.719 61.095 17.617 193.385 59.56 320.846 95.291 429.43 212.39 488.345 321 452.382c113.589-37.611 171.514-163.093 126.571-274.187-33.517-82.849-118.913-135.6-207.603-128.24M163.5 162.113c-6.05.525-11.615 1.171-12.366 1.435-1.521.533-1.343 178.576.179 180.099 1.136 1.135 12.879 1.684 19.18.897l5.507-.688v-32.178l.001-32.178 14.749-.039c46.295-.124 69.485-20.281 69.557-60.461.054-29.599-13.534-47.81-41.163-55.173-9.058-2.414-37.503-3.29-55.644-1.714m17.25 21.56-4.75.437V257h12.451c32.241 0 44.855-10.524 44.948-37.5.093-27.212-17.339-39.075-52.649-35.827m129.75 28.929c-27.654 3.784-39.954 15.136-39.979 36.898-.021 18.381 8.028 26.218 37.979 36.976C327.913 293.449 332 297.019 332 307c0 8.846-6.276 15.427-17.213 18.051-6.51 1.562-25.325.66-32.787-1.572-10.205-3.051-9.333-3.324-11.799 3.695-1.222 3.479-2.33 8.126-2.462 10.326l-.239 4 9 2.308c12.334 3.162 33.046 4.023 43.5 1.809 22.606-4.789 35.894-18.373 36.815-37.634 1.056-22.076-6.712-30.603-37.741-41.434-16.253-5.673-21.345-9.127-23.107-15.672-4.088-15.183 15.519-22.255 42.632-15.377 5.42 1.375 9.942 2.5 10.048 2.5.477 0 3.421-9.971 4.227-14.319.86-4.636.793-4.858-1.74-5.835-8.626-3.329-32.303-6.385-40.634-5.244" fill-rule="evenodd"/><path fill="#23203b" stroke="#23203b" d="M409 118.5c1.292 1.375 2.574 2.5 2.849 2.5.275 0-.557-1.125-1.849-2.5-1.292-1.375-2.574-2.5-2.849-2.5-.275 0 .557 1.125 1.849 2.5m-307.595.75L99.5 121.5l2.25-1.905c1.237-1.048 2.25-2.06 2.25-2.25 0-.8-.805-.209-2.595 1.905m-5.533 6.5c-1.243 1.586-1.208 1.621.378.378 1.666-1.307 2.195-2.128 1.372-2.128-.207 0-.995.787-1.75 1.75M414 124.378c0 .207.788.995 1.75 1.75 1.586 1.243 1.621 1.208.378-.378-1.307-1.666-2.128-2.195-2.128-1.372m-322.128 6.314c-1.164 1.436-1.163 1.566.008.861.959-.578 1.226-.408.875.558-.278.764-1 1.28-1.605 1.147-2.305-.506-17.249 24.051-24.034 39.492-55.1 125.404 24.813 268.716 160.49 287.815C379.137 481.896 500.193 335.28 451.415 189.5c-5.699-17.034-20.704-46.359-23.396-45.725-.642.151-.877-.196-.521-.772.356-.575-1.434-3.961-3.976-7.525-4.54-6.362-7.272-9.079-3.798-3.776 1.63 2.487 1.636 2.65.074 2.051-1.173-.451-1.537-.236-1.179.697.285.741.037 1.645-.551 2.008-.587.363-1.068.157-1.068-.458s-.408-.866-.906-.558c-.498.308-.671 1.46-.383 2.559.475 1.817-.46 2.497-2.925 2.129-.393-.058-.455.569-.138 1.395.317.825-.037 2.256-.786 3.18-1.171 1.443-1.151 1.561.138.839.825-.462-.044.577-1.93 2.308-1.887 1.731-2.899 3.148-2.25 3.148s1.18.502 1.18 1.117c0 .624-.882.886-2 .593-1.1-.287-2-.031-2 .569 0 .601-1.013 2.195-2.25 3.542l-2.25 2.45 2.336-1.216c3.953-2.06 3.31-.618-.879 1.972-2.268 1.401-3.957 3.223-3.957 4.268 0 1.192-.432 1.563-1.25 1.072-.72-.433-.614.035.25 1.104 1.323 1.636 1.325 1.796.009 1.361-.82-.271-2.05.066-2.732.748-.683.683-1.812 1.472-2.509 1.755-.972.393-.918.786.232 1.683 1.288 1.005 1.252 1.091-.25.608-1.139-.367-1.75-.04-1.75.937 0 .825-.672 1.758-1.494 2.073-.822.316-1.275.928-1.007 1.362.268.434-.581 1.057-1.886 1.384-1.306.328-2.611 1.501-2.9 2.607-.315 1.207-1.363 2.011-2.619 2.011-1.257 0-2.094.643-2.094 1.607 0 1.067-.542 1.399-1.611.989-1.153-.443-1.447-.189-1.032.893.555 1.446-.405 1.936-3.107 1.586-1.625-.211-1.625 1.607 0 2.263.773.312.608.534-.433.583-.925.043-1.974.997-2.33 2.12-.386 1.216-1.836 2.279-3.588 2.629-1.617.324-3.226 1.05-3.574 1.614-.391.632-.132.715.675.216.848-.524 1.067-.418.622.302-.377.611-1.347.857-2.154.547-.915-.351-1.468.042-1.468 1.044 0 .884-.45 1.607-1 1.607s-1-.477-1-1.059-.457-.776-1.016-.431c-.559.346-.758 1.047-.441 1.559.316.512-.321.931-1.417.931-1.113 0-2.271.882-2.626 2-.642 2.024-2.5 2.802-2.5 1.048 0-.524-1.22.179-2.712 1.561-1.574 1.459-3.468 2.316-4.513 2.042-1.851-.484-4.28 2.511-3.041 3.75.365.365-2.013.439-5.285.166-5.388-.451-5.525-.418-1.449.35 2.475.466 8.26 1.863 12.856 3.103l8.355 2.256-.633 4.112c-1.291 8.383-4.651 16.798-6.432 16.111-18.007-6.95-42.139-6.689-48.669.527-2.526 2.791-3.104 10.862-1.06 14.813 2.402 4.646 7.477 7.508 22.583 12.737 7.425 2.57 16.022 5.94 19.104 7.489 27.225 13.682 24.13 53.977-5.174 67.361-15.328 7-39.734 7.752-61.18 1.884-5.267-1.441-5.75-1.81-5.75-4.39 0-2.605 4.672-18.92 5.418-18.92.182 0 2.3.7 4.706 1.556 26.716 9.496 52.771 3.425 54.591-12.722 1.137-10.082-3.854-14.965-21.976-21.503-32.172-11.607-39.243-18.515-39.234-38.331.005-11.373 1.566-16.14 7.282-22.24 1.412-1.506 2.31-2.996 1.996-3.31-.314-.315-2.05 1.488-3.858 4.005-1.808 2.518-3.543 4.217-3.856 3.778-.661-.929-1.866-.869-4.332.215-1.017.448-2.351.288-3.152-.378-1.062-.88-1.513-.848-1.909.138-.285.711-.623-3.883-.751-10.208l-.232-11.5-.751 12.5c-2.326 38.774-23.006 56.412-67.692 57.74l-17.25.512v64.808l-12.75-.28-12.75-.28-.508-90.5c-.279-49.775-.617-78.612-.75-64.083-.241 26.279-.934 34.529-1.315 15.646-.192-9.501-.317-10.011-3.121-12.753-1.629-1.592-3.45-2.554-4.114-2.173-.656.376-.858.315-.451-.135 1.155-1.274-1.199-3.455-2.988-2.769-1.143.439-1.434.181-1.019-.9.319-.833.179-2.149-.311-2.924-.721-1.138-.895-1.072-.908.341-.008.963-.465 1.75-1.015 1.75-.55 0-.947-.338-.882-.75.397-2.511-.288-3.439-2.175-2.945-1.594.417-1.817.248-.988-.751.779-.939.659-1.63-.443-2.544-.831-.69-1.527-.862-1.545-.382-.019.479-.969-.253-2.113-1.628-1.144-1.375-2.588-2.5-3.209-2.5s-1.924-1.687-2.895-3.75c-.971-2.062-2.423-3.75-3.226-3.75-.841 0-1.233-.594-.924-1.399.295-.769.048-1.7-.548-2.069-.597-.369-.829-1.084-.516-1.59.312-.505-.164-.638-1.059-.295-1.199.46-1.542.128-1.302-1.261.222-1.286-.195-1.801-1.311-1.618-.9.147-1.899-.416-2.219-1.25-.32-.835-.12-1.518.445-1.518.566 0 .767-.422.448-.939-.319-.516-1.483-.764-2.586-.552-1.103.213-1.759-.012-1.458-.5.302-.487-.249-1.39-1.223-2.006-1.271-.803-1.416-1.268-.515-1.646 1.735-.729.522-2.401-1.248-1.722-.97.373-1.331-.042-1.123-1.293.168-1.013-.03-2.967-.44-4.342-.484-1.622-.781-1.886-.845-.75-.137 2.394-2.1 2.228-2.1-.177 0-1.061-1.154-2.836-2.565-3.945-2.123-1.671-2.381-2.361-1.497-4.012.72-1.346.736-2.2.048-2.624-.56-.347-.76-1.049-.443-1.561.972-1.573-.217-1.031-1.671.761m-3.361 5.931c-.945 1.443-1.224 2.318-.62 1.944 1.154-.713 3.483-4.567 2.759-4.567-.231 0-1.193 1.18-2.139 2.623m333.459-.679c.573 1.07 1.535 2.25 2.139 2.623.604.374.325-.501-.62-1.944-2.002-3.055-3.038-3.518-1.519-.679M106 152.059c0 .582.45.781 1 .441s1-.816 1-1.059-.45-.441-1-.441-1 .477-1 1.059m69.75 8.647c1.238.238 3.262.238 4.5 0 1.238-.239.225-.434-2.25-.434s-3.488.195-2.25.434m26.063-.023c.721.289 1.584.253 1.916-.079.332-.332-.258-.568-1.312-.525-1.165.048-1.402.285-.604.604m-40.563 1.006c.963.252 2.537.252 3.5 0 .963-.251.175-.457-1.75-.457s-2.713.206-1.75.457m-9.5.973c.688.278 1.813.278 2.5 0 .688-.277.125-.504-1.25-.504s-1.937.227-1.25.504M387.5 174c-.34.55-.141 1 .441 1s1.059-.45 1.059-1-.198-1-.441-1-.719.45-1.059 1m-210.871 10.792c-1.822 2.948.381 3.865 7.118 2.962 20.351-2.726 39.516 4.186 45.915 16.56 1.849 3.575 2.92 17.317 1.887 24.206-.682 4.553-.774 4.665-1.941 2.379-.674-1.32-1.986-2.336-2.916-2.26-.931.076-1.692-.277-1.692-.785 0-.528-.828-.481-1.931.109-1.416.758-2.289.674-3.277-.314-.741-.741-2.46-1.25-3.82-1.131-1.36.119-3.337-.512-4.394-1.401-1.554-1.308-1.76-1.33-1.078-.117.606 1.077.28 1.007-1.157-.25-2.183-1.909-3.828-2.343-2.843-.75.34.55.141 1-.441 1s-1.059-.597-1.059-1.327c0-.919-.966-1.185-3.142-.865-2.159.316-2.925.109-2.448-.662.43-.695.152-.915-.729-.577-.783.3-2.054-.042-2.826-.761-1.644-1.533-3.361-2.048-7.01-2.102-1.803-.027-2.489-.471-2.138-1.384.349-.909-.006-1.144-1.096-.726-.914.35-1.611.113-1.611-.548 0-.641-.45-.888-1-.548-.55.34-1 .141-1-.441 0-1.983-2.185-1.068-2.844 1.191-.361 1.238-.881-2.7-1.156-8.75-.394-8.664-.681-4.773-1.352 18.315-.468 16.123-.544 29.623-.168 30 1.22 1.224 20.433 1.405 27.039.255 11.215-1.953 24.523-9.913 23.039-13.78-.301-.783-.091-1.12.477-.768 2.418 1.494 5.373-8.769 5.764-20.022.637-18.347-5.435-29.205-19.299-34.506-6.733-2.574-35.577-4.297-36.871-2.202M365.5 194c-.34.55-.141 1 .441 1s1.059-.45 1.059-1-.198-1-.441-1-.719.45-1.059 1m-105.421 11.583c.048 1.165.285 1.402.604.605.289-.722.253-1.585-.079-1.917-.332-.332-.568.258-.525 1.312M340.5 211c-.34.55-.141 1 .441 1s1.059-.45 1.059-1-.198-1-.441-1-.719.45-1.059 1m-26.25.735c2.613.206 6.887.206 9.5 0 2.613-.206.475-.375-4.75-.375s-7.363.169-4.75.375m-10.981.958c.973.254 2.323.237 3-.037.677-.274-.119-.481-1.769-.461-1.65.02-2.204.244-1.231.498m-4.456.99c.721.289 1.584.253 1.916-.079.332-.332-.258-.568-1.312-.525-1.165.048-1.402.285-.604.604m-15.507 6.89-2.806 2.573 3.25-2.261c1.788-1.244 3.25-2.401 3.25-2.573 0-.789-1.106-.112-3.694 2.261m-60.901 25.677-1.905 2.25 2.25-1.905c1.238-1.048 2.25-2.06 2.25-2.25 0-.8-.805-.209-2.595 1.905" fill-rule="evenodd"/></svg>