<svg xmlns="http://www.w3.org/2000/svg" viewBox="0 0 80 80"><path fill="#fcfcfc" stroke="#fcfcfc" d="M25.281 3.25C23.042 6.155 14 21.867 14 22.855c0 1.757 12.301 22.077 13.075 21.599.391-.242 3.347-4.935 6.568-10.429l5.857-9.989 12.333-.018c6.784-.01 12.184-.373 12-.808-.183-.434-3.023-5.384-6.311-11L51.544 2H38.895c-8.939 0-12.933.367-13.614 1.25m23.466 35.392c-1.327 2.122-4.176 6.887-6.33 10.589L38.5 55.962l-12.333.019c-6.784.01-12.184.388-12 .839.183.451 3.033 5.403 6.333 11.004l6 10.183 12.93-.253 12.93-.254 5.788-9.5c7.031-11.538 6.991-10.319.682-20.861-8.229-13.748-7.291-12.958-10.083-8.497" fill-rule="evenodd"/><path fill="#7c8c9c" stroke="#7c8c9c" d="M20.017 12.471 13.786 23 20 33.5c3.418 5.775 6.514 10.5 6.879 10.5.366 0 3.271-4.487 6.456-9.971l5.79-9.97 12.333-.28L63.79 23.5 57.597 13 51.404 2.5l-12.578-.279-12.577-.279-6.232 10.529M49.266 7.25c-.539.688-2.657 4.287-4.709 8L40.828 22h9.645c5.305 0 9.459-.337 9.231-.75C57.478 17.219 50.713 6 50.508 6c-.144 0-.704.563-1.242 1.25m-4.601 38.721-5.79 9.97-12.333.28-12.332.279L20.403 67l6.193 10.5 12.578.279 12.577.279 6.232-10.529L64.214 57 58 46.5C54.582 40.725 51.486 36 51.121 36c-.366 0-3.271 4.487-6.456 9.971M18.296 58.75c9.466 17.141 9.109 17 15.162 6L37.172 58h-9.645c-5.305 0-9.459.337-9.231.75" fill-rule="evenodd"/><path fill="#798a99" stroke="#798a99" d="M20.234 12.5 14.04 23l6.162 10.446c3.389 5.746 6.468 10.258 6.841 10.028.373-.231 3.237-4.707 6.364-9.947L39.092 24h24.814l-6.584-11-6.583-11H26.427l-6.193 10.5m9.062-7.75c9.604 17.392 8.702 17.096 15.512 5.085L48.116 4h-9.617c-5.289 0-9.431.338-9.203.75m16.327 8.041C43.08 17.127 41 20.974 41 21.338c0 .364 4.275.662 9.5.662s9.5-.279 9.5-.619c0-.341-1.653-3.378-3.674-6.75-6.522-10.885-5.503-10.71-10.703-1.84m-23.836 1.026L17.166 21.5l9.044.289c4.975.159 9.253.081 9.508-.173.482-.483-7.464-14.341-8.639-15.067-.369-.228-2.751 3.042-5.292 7.268m-.074 18.131c2.555 4.372 4.959 7.755 5.342 7.518.812-.502 8.945-14.04 8.945-14.891 0-.316-4.26-.575-9.466-.575h-9.466l4.645 7.948m28.586 5.28c-.54.7-3.333 5.21-6.207 10.022L38.866 56H14.094l6.584 11 6.583 11h24.312l6.194-10.502 6.195-10.501-5.135-8.749c-7.317-12.465-7.365-12.527-8.528-11.02m.03 3.968C48.68 43.335 42 54.711 42 55.381c0 .34 4.312.619 9.582.619h9.581l-2.276-3.75c-7.421-12.223-7.539-12.376-8.558-11.054M18 58.619c0 .341 1.653 3.378 3.674 6.75 6.522 10.885 5.503 10.71 10.703 1.84C34.92 62.873 37 59.026 37 58.662c0-.364-4.275-.662-9.5-.662s-9.5.279-9.5.619m24 0c0 .67 6.68 12.046 8.329 14.185 1.019 1.322 1.137 1.169 8.558-11.054L61.163 58h-9.581c-5.27 0-9.582.279-9.582.619m-7.381 9.047L30.072 75.5l4.998.303c2.748.167 6.998.167 9.444 0l4.446-.303-4.293-7.23c-2.362-3.977-4.566-7.502-4.898-7.834-.332-.332-2.65 2.921-5.15 7.23" fill-rule="evenodd"/><path fill="#e8ecee" stroke="#e8ecee" d="M20.75 11.945c-3.163 5.456-5.733 10.513-5.712 11.238.021.724 2.674 5.768 5.896 11.207l5.858 9.891 5.854-10.099L38.5 24.083l12.25-.042c6.737-.022 12.25-.307 12.25-.631 0-.325-2.809-5.275-6.242-11L50.516 2l-12.008.013-12.008.012-5.75 9.92M29 4.523C29 5.225 38.182 21 38.591 21c.413 0 8.233-13.377 9.023-15.436C48.132 4.212 46.909 4 38.607 4 33.323 4 29 4.235 29 4.523m-7.282 8.685c-2.631 4.433-4.601 8.242-4.379 8.464.222.222 4.69.274 9.93.116l9.527-.288-4.236-7.287C26.684 4.1 27.098 4.139 21.718 13.208m27.612-7c-.542.71-2.263 3.542-3.823 6.292-1.561 2.75-3.49 6.012-4.287 7.25L39.77 22h21.132l-4.549-7.75c-5.492-9.356-5.775-9.68-7.023-8.042M17 24.44c0 .242 2.186 4.077 4.859 8.522 5.329 8.865 4.921 8.843 9.634.538 1.561-2.75 3.49-6.012 4.287-7.25L37.23 24H27.115C21.552 24 17 24.198 17 24.44m28.349 21.391L39.5 55.959l-12.25.021c-6.738.011-12.25.286-12.25.61 0 .325 2.809 5.275 6.242 11L27.484 78l12.008-.013 12.008-.012 5.75-9.92c3.163-5.456 5.733-10.513 5.712-11.238-.021-.724-2.676-5.771-5.901-11.216l-5.863-9.899-5.849 10.129m4.374-4.668c-.791 1.285-3.049 5.037-5.019 8.337l-3.583 6 9.569.288c5.262.158 9.749.106 9.97-.115.317-.317-7.932-15.135-9.192-16.51-.169-.185-.955.715-1.745 2M21.647 65.75c2.502 4.263 4.917 8.139 5.366 8.615.793.839 2.654-1.755 8.335-11.615L38.084 58H17.098l4.549 7.75m20.593-5.5c.808 1.237 2.928 4.837 4.71 8 1.783 3.162 3.571 5.954 3.973 6.203.569.351 8.213-11.742 9.91-15.68.184-.425-4.256-.773-9.865-.773H40.77l1.47 2.25m-7.645 6.588C32.068 71.149 30 74.974 30 75.338c0 .364 4.275.662 9.5.662s9.5-.235 9.5-.523C49 74.831 39.834 59 39.46 59c-.148 0-2.338 3.527-4.865 7.838" fill-rule="evenodd"/></svg>